<?xml version="1.0" encoding="utf-8"?>
<!-- Generator: Adobe Illustrator 27.5.0, SVG Export Plug-In . SVG Version: 6.00 Build 0)  -->
<svg version="1.1" id="Layer_1" xmlns="http://www.w3.org/2000/svg" xmlns:xlink="http://www.w3.org/1999/xlink" x="0px" y="0px"
	 viewBox="0 0 500 300" style="enable-background:new 0 0 500 300;" xml:space="preserve">
<style type="text/css">
	.st0{fill:#FFFFFF;}
	.st1{opacity:0;fill:none;stroke:#000000;stroke-width:1.000000e-06;stroke-miterlimit:10;}
	
		.st2{opacity:0;clip-path:url(#SVGID_00000167393792135349451290000001755865366405683390_);fill:none;stroke:#000000;stroke-width:1.000000e-06;stroke-miterlimit:10;}
	.st3{clip-path:url(#SVGID_00000167393792135349451290000001755865366405683390_);}
	
		.st4{opacity:0;clip-path:url(#SVGID_00000061454303003277261960000008791438374355817615_);fill:none;stroke:#000000;stroke-width:1.000000e-06;stroke-miterlimit:10;}
	.st5{clip-path:url(#SVGID_00000061454303003277261960000008791438374355817615_);}
	.st6{fill:#FFFFFF;stroke:#000000;stroke-width:0.75;stroke-miterlimit:10;}
	
		.st7{opacity:0;clip-path:url(#SVGID_00000072259214066024331160000001936147142700956839_);fill:none;stroke:#000000;stroke-width:1.000000e-06;stroke-miterlimit:10;}
	.st8{clip-path:url(#SVGID_00000072259214066024331160000001936147142700956839_);}
	
		.st9{opacity:0;clip-path:url(#SVGID_00000127744863167012996070000000349478631196349371_);fill:none;stroke:#000000;stroke-width:1.000000e-06;stroke-miterlimit:10;}
	.st10{clip-path:url(#SVGID_00000127744863167012996070000000349478631196349371_);}
	
		.st11{opacity:0;clip-path:url(#SVGID_00000139996504382765037530000003927277292009858467_);fill:none;stroke:#000000;stroke-width:1.000000e-06;stroke-miterlimit:10;}
	.st12{clip-path:url(#SVGID_00000139996504382765037530000003927277292009858467_);}
	
		.st13{opacity:0;clip-path:url(#SVGID_00000031890183747183887580000013476158297340191143_);fill:none;stroke:#000000;stroke-width:1.000000e-06;stroke-miterlimit:10;}
	.st14{clip-path:url(#SVGID_00000031890183747183887580000013476158297340191143_);}
	
		.st15{opacity:0;clip-path:url(#SVGID_00000177485496015481653990000004760496306050236570_);fill:none;stroke:#000000;stroke-width:1.000000e-06;stroke-miterlimit:10;}
	.st16{clip-path:url(#SVGID_00000177485496015481653990000004760496306050236570_);}
	
		.st17{opacity:0;clip-path:url(#SVGID_00000070803928962484288300000015458546652469239717_);fill:none;stroke:#000000;stroke-width:1.000000e-06;stroke-miterlimit:10;}
	.st18{clip-path:url(#SVGID_00000070803928962484288300000015458546652469239717_);}
	
		.st19{opacity:0;clip-path:url(#SVGID_00000081648726574884020210000007559132341227470246_);fill:none;stroke:#000000;stroke-width:1.000000e-06;stroke-miterlimit:10;}
	.st20{clip-path:url(#SVGID_00000081648726574884020210000007559132341227470246_);}
	
		.st21{opacity:0;clip-path:url(#SVGID_00000077305553914866846050000001145902509886382233_);fill:none;stroke:#000000;stroke-width:1.000000e-06;stroke-miterlimit:10;}
	.st22{clip-path:url(#SVGID_00000077305553914866846050000001145902509886382233_);}
	
		.st23{opacity:0;clip-path:url(#SVGID_00000020364883711061937800000017194389445120294553_);fill:none;stroke:#000000;stroke-width:1.000000e-06;stroke-miterlimit:10;}
	.st24{clip-path:url(#SVGID_00000020364883711061937800000017194389445120294553_);}
	
		.st25{opacity:0;clip-path:url(#SVGID_00000068654821892131971800000017966093432290185104_);fill:none;stroke:#000000;stroke-width:1.000000e-06;stroke-miterlimit:10;}
	.st26{clip-path:url(#SVGID_00000120548143991485185730000013846352906486244761_);}
	.st27{fill:none;stroke:#000000;stroke-width:0.75;stroke-miterlimit:10;}
	.st28{clip-path:url(#SVGID_00000111163973434170496990000001996962589612242073_);}
	
		.st29{opacity:0;clip-path:url(#SVGID_00000067935768515674712440000002216541134932674490_);fill:none;stroke:#000000;stroke-width:1.000000e-06;stroke-miterlimit:10;}
	.st30{clip-path:url(#SVGID_00000067935768515674712440000002216541134932674490_);}
	
		.st31{opacity:0;clip-path:url(#SVGID_00000119805486943290551800000005541707036773643702_);fill:none;stroke:#000000;stroke-width:1.000000e-06;stroke-miterlimit:10;}
	.st32{clip-path:url(#SVGID_00000119805486943290551800000005541707036773643702_);}
</style>
<g>
	<g>
		<circle class="st0" cx="81.9" cy="122.9" r="20.4"/>
		<path d="M81.9,102.8c11,0,20,9,20,20s-9,20-20,20s-20-9-20-20S70.8,102.8,81.9,102.8 M81.9,102.1c-11.5,0-20.8,9.3-20.8,20.8
			s9.3,20.8,20.8,20.8s20.8-9.3,20.8-20.8S93.3,102.1,81.9,102.1L81.9,102.1z"/>
	</g>
	<polygon class="st1" points="81.9,122.9 81.9,122.9 81.9,122.9 81.9,122.9 81.9,122.9 81.9,122.9 81.9,122.9 81.9,122.9 
		81.9,122.9 81.9,122.9 81.9,122.9 81.9,122.9 81.9,122.9 81.9,122.9 81.9,122.9 81.9,122.9 81.9,122.9 81.9,122.9 81.9,122.9 
		81.9,122.9 81.9,122.9 81.9,122.9 81.9,122.9 81.9,122.9 81.9,122.9 81.9,122.9 81.9,122.9 81.9,122.9 81.9,122.9 81.9,122.9 
		81.9,122.9 81.9,122.9 81.9,122.9 81.9,122.9 81.9,122.9 81.9,122.9 81.9,122.9 81.9,122.9 81.9,122.9 81.9,122.9 81.9,122.9 
		81.9,122.9 81.9,122.9 81.9,122.9 81.9,122.9 81.9,122.9 81.9,122.9 81.9,122.9 81.9,122.9 81.9,122.9 81.9,122.9 81.9,122.9 
		81.9,122.9 81.9,122.9 81.9,122.9 81.9,122.9 81.9,122.9 81.9,122.9 81.9,122.9 81.9,122.9 81.9,122.9 81.9,122.9 81.9,122.9 
		81.9,122.9 81.9,122.9 81.9,122.9 81.9,122.9 81.9,122.9 81.9,122.9 81.9,122.9 81.9,122.9 81.9,122.9 81.9,122.9 81.9,122.9 
		81.9,122.9 81.9,122.9 81.9,122.9 81.9,122.9 81.9,122.9 81.9,122.9 81.9,122.9 81.9,122.9 81.9,122.9 81.9,122.9 81.9,122.9 
		81.9,122.9 	"/>
	<g>
		<defs>
			<rect id="SVGID_1_" x="70.9" y="110.4" width="22" height="25"/>
		</defs>
		<clipPath id="SVGID_00000101087367965846765070000007826949170736112024_">
			<use xlink:href="#SVGID_1_"  style="overflow:visible;"/>
		</clipPath>
		
			<path style="opacity:0;clip-path:url(#SVGID_00000101087367965846765070000007826949170736112024_);fill:none;stroke:#000000;stroke-width:1.000000e-06;stroke-miterlimit:10;" d="
			M81.9,122.9L81.9,122.9z"/>
		<path style="clip-path:url(#SVGID_00000101087367965846765070000007826949170736112024_);" d="M82.2,123.3
			c0.3-0.4,0.3-0.5,0.3-0.6c0-0.2-0.1-0.4-0.3-0.5L75,111.5h8.3c6.1,0,7.9,1.3,8.6,7h0.9l-1-8.1H71.8c-0.9,0-0.9,0-0.9,0.8l8.9,13
			l-8.5,9.7c-0.4,0.4-0.4,0.5-0.4,0.6c0,0.4,0.4,0.4,0.9,0.4h19.9l1-8.5h-0.9c-0.6,6-3.1,7-8.7,7h-9.9L82.2,123.3"/>
	</g>
</g>
<g>
	<g>
		<circle class="st0" cx="302" cy="122.9" r="20.4"/>
		<path d="M302,102.8c11,0,20,9,20,20s-9,20-20,20s-20-9-20-20S291,102.8,302,102.8 M302,102.1c-11.5,0-20.8,9.3-20.8,20.8
			s9.3,20.8,20.8,20.8s20.8-9.3,20.8-20.8S313.5,102.1,302,102.1L302,102.1z"/>
	</g>
	<polygon class="st1" points="302,122.9 302,122.9 302,122.9 302,122.9 302,122.9 302,122.9 302,122.9 302,122.9 302,122.9 
		302,122.9 302,122.9 302,122.9 302,122.9 302,122.9 302,122.9 302,122.9 302,122.9 302,122.9 302,122.9 302,122.9 302,122.9 
		302,122.9 302,122.9 302,122.9 302,122.9 302,122.9 302,122.9 302,122.9 302,122.9 302,122.9 302,122.9 302,122.9 302,122.9 
		302,122.9 302,122.9 302,122.9 302,122.9 302,122.9 302,122.9 302,122.9 302,122.9 302,122.9 302,122.9 302,122.9 302,122.9 
		302,122.9 302,122.9 302,122.9 302,122.9 302,122.9 302,122.9 302,122.9 302,122.9 302,122.9 302,122.9 302,122.9 302,122.9 
		302,122.9 302,122.9 302,122.9 302,122.9 302,122.9 302,122.9 302,122.9 302,122.9 302,122.9 302,122.9 302,122.9 302,122.9 
		302,122.9 302,122.9 302,122.9 302,122.9 302,122.9 302,122.9 302,122.9 302,122.9 302,122.9 302,122.9 302,122.9 302,122.9 
		302,122.9 302,122.9 302,122.9 302,122.9 302,122.9 	"/>
	<g>
		<defs>
			<rect id="SVGID_00000159471253656329116170000000518273455850118024_" x="291" y="110.4" width="22" height="25"/>
		</defs>
		<clipPath id="SVGID_00000007400067681590747220000004855223661299172017_">
			<use xlink:href="#SVGID_00000159471253656329116170000000518273455850118024_"  style="overflow:visible;"/>
		</clipPath>
		
			<path style="opacity:0;clip-path:url(#SVGID_00000007400067681590747220000004855223661299172017_);fill:none;stroke:#000000;stroke-width:1.000000e-06;stroke-miterlimit:10;" d="
			M302,122.9L302,122.9z"/>
		<path style="clip-path:url(#SVGID_00000007400067681590747220000004855223661299172017_);" d="M302.4,123.3
			c0.3-0.4,0.3-0.5,0.3-0.6c0-0.2-0.1-0.4-0.3-0.5l-7.4-10.6h8.3c6.1,0,7.9,1.3,8.6,7h0.9l-1-8.1H292c-0.9,0-0.9,0-0.9,0.8l8.9,13
			l-8.5,9.7c-0.4,0.4-0.4,0.5-0.4,0.6c0,0.4,0.4,0.4,0.9,0.4h19.9l1-8.5H312c-0.6,6-3.1,7-8.7,7h-9.9L302.4,123.3"/>
	</g>
</g>
<g>
	<rect x="152.4" y="59.2" class="st6" width="94.1" height="23"/>
	<polygon class="st1" points="171.3,72.7 171.3,72.7 171.3,72.7 171.3,72.7 171.3,72.7 171.3,72.7 171.3,72.7 171.3,72.7 
		171.3,72.7 171.3,72.7 171.3,72.7 171.3,72.7 171.3,72.7 171.3,72.7 171.3,72.7 171.3,72.7 171.3,72.7 171.3,72.7 171.3,72.7 
		171.3,72.7 171.3,72.7 171.3,72.7 171.3,72.7 171.3,72.7 171.3,72.7 171.3,72.7 171.3,72.7 171.3,72.7 171.3,72.7 171.3,72.7 
		171.3,72.7 171.3,72.7 171.3,72.7 171.3,72.7 171.3,72.7 171.3,72.7 171.3,72.7 171.3,72.7 171.3,72.7 171.3,72.7 171.3,72.7 
		171.3,72.7 171.3,72.7 171.3,72.7 171.3,72.7 171.3,72.7 171.3,72.7 171.3,72.7 171.3,72.7 171.3,72.7 171.3,72.7 171.3,72.7 
		171.3,72.7 171.3,72.7 171.3,72.7 171.3,72.7 171.3,72.7 171.3,72.7 171.3,72.7 171.3,72.7 171.3,72.7 171.3,72.7 171.3,72.7 
		171.3,72.7 171.3,72.7 171.3,72.7 171.3,72.7 171.3,72.7 171.3,72.7 171.3,72.7 171.3,72.7 171.3,72.7 171.3,72.7 171.3,72.7 
		171.3,72.7 171.3,72.7 171.3,72.7 171.3,72.7 171.3,72.7 171.3,72.7 171.3,72.7 171.3,72.7 171.3,72.7 171.3,72.7 171.3,72.7 
		171.3,72.7 	"/>
	<polygon class="st1" points="168,72 168,72 168,72 168,72 168,72 168,72 168,72 168,72 168,72 168,72 168,72 168,72 168,72 168,72 
		168,72 168,72 168,72 168,72 168,72 168,72 168,72 168,72 168,72 168,72 168,72 168,72 168,72 168,72 168,72 168,72 168,72 168,72 
		168,72 168,72 168,72 168,72 168,72 168,72 168,72 168,72 168,72 168,72 168,72 168,72 168,72 168,72 168,72 168,72 168,72 168,72 
		168,72 168,72 168,72 168,72 168,72 168,72 168,72 168,72 168,72 168,72 168,72 168,72 168,72 168,72 168,72 168,72 168,72 168,72 
		168,72 168,72 168,72 168,72 168,72 168,72 168,72 168,72 168,72 168,72 168,72 168,72 168,72 168,72 168,72 168,72 168,72 168,72 
			"/>
	<g>
		<defs>
			<rect id="SVGID_00000141428053066652025780000010913507216465202601_" x="191" y="62.7" width="26" height="16"/>
		</defs>
		<clipPath id="SVGID_00000129167677143705283220000005701517582212695729_">
			<use xlink:href="#SVGID_00000141428053066652025780000010913507216465202601_"  style="overflow:visible;"/>
		</clipPath>
		
			<path style="opacity:0;clip-path:url(#SVGID_00000129167677143705283220000005701517582212695729_);fill:none;stroke:#000000;stroke-width:1.000000e-06;stroke-miterlimit:10;" d="
			M204,70.7L204,70.7z"/>
		<path style="clip-path:url(#SVGID_00000129167677143705283220000005701517582212695729_);" d="M200.3,68.3c0-0.1-0.1-0.2-0.1-0.2
			c0,0,0.3-0.3,0.5-0.4l3.1-2.4c1.7-1.2,2.4-1.3,2.9-1.4c0.1,0,0.3,0,0.3-0.4c0-0.1-0.1-0.2-0.2-0.2c-0.4,0-0.8,0.1-1.3,0.1
			c-0.6,0-1.3-0.1-2-0.1c-0.1,0-0.3,0-0.3,0.4c0,0.1,0.1,0.2,0.2,0.2c0.4,0,0.6,0.1,0.6,0.4c0,0.3-0.5,0.7-0.6,0.8l-7,5.4l1.4-5.7
			c0.2-0.6,0.2-0.8,1.5-0.8c0.4,0,0.6,0,0.6-0.4c0-0.2-0.1-0.2-0.2-0.2c-0.5,0-1.8,0.1-2.3,0.1c-0.5,0-1.8-0.1-2.3-0.1
			c-0.1,0-0.4,0-0.4,0.3c0,0.2,0.2,0.2,0.5,0.2c0.2,0,0.6,0,0.8,0c0.3,0,0.4,0.1,0.4,0.3c0,0.1,0,0.1-0.1,0.3l-2.4,9.6
			c-0.2,0.7-0.2,0.8-1.6,0.8c-0.3,0-0.5,0-0.5,0.3c0,0.2,0.2,0.2,0.3,0.2c0.5,0,1.8-0.1,2.3-0.1c0.4,0,0.8,0,1.1,0
			c0.4,0,0.8,0,1.2,0c0.1,0,0.4,0,0.4-0.4c0-0.2-0.2-0.2-0.5-0.2c-0.7,0-1.2,0-1.2-0.3c0-0.1,0.1-0.5,0.2-0.8
			c0.2-0.9,0.5-1.9,0.7-2.8l2.7-2.1l2.1,4.8c0.2,0.5,0.2,0.5,0.2,0.6c0,0.5-0.8,0.6-0.9,0.6c-0.2,0-0.4,0-0.4,0.4
			c0,0.2,0.2,0.2,0.3,0.2c0.7,0,1.5-0.1,2.2-0.1c0.4,0,1.4,0.1,1.8,0.1c0.1,0,0.3,0,0.3-0.4c0-0.2-0.2-0.2-0.4-0.2
			c-0.7,0-1-0.2-1.2-0.8L200.3,68.3"/>
		<path style="clip-path:url(#SVGID_00000129167677143705283220000005701517582212695729_);" d="M211.5,70.5
			c0.1-0.4,0.1-0.4,0.6-0.4h1.5c1.2,0,1.9,0.4,1.9,1.2c0,0.4-0.2,1.4-0.8,1.9c-0.5,0.4-1.2,0.6-2.1,0.6h-2L211.5,70.5 M210.6,74.3
			h2.3c2.1,0,3.9-1.4,3.9-2.7c0-1.1-1-2-2.7-2h-4.4c-0.2,0-0.4,0-0.4,0.3c0,0.2,0.1,0.2,0.4,0.2c0.2,0,0.3,0,0.5,0
			c0.3,0,0.3,0.1,0.3,0.2c0,0,0,0.1-0.1,0.3l-1.7,6.6c-0.1,0.5-0.1,0.6-1.1,0.6c-0.2,0-0.4,0-0.4,0.3c0,0,0,0.2,0.2,0.2
			c0.4,0,1.3,0,1.6,0c0.2,0,0.7,0,0.9,0c0.2,0,0.6,0,0.8,0c0.1,0,0.3,0,0.3-0.3c0-0.2-0.2-0.2-0.4-0.2c0,0-0.3,0-0.5,0
			c-0.3,0-0.3-0.1-0.3-0.2c0,0,0-0.1,0.1-0.3L210.6,74.3z"/>
	</g>
	<polygon class="st1" points="231.9,71.6 231.9,71.6 231.9,71.6 231.9,71.6 231.9,71.6 231.9,71.6 231.9,71.6 231.9,71.6 
		231.9,71.6 231.9,71.6 231.9,71.6 231.9,71.6 231.9,71.6 231.9,71.6 231.9,71.6 231.9,71.6 231.9,71.6 231.9,71.6 231.9,71.6 
		231.9,71.6 231.9,71.6 231.9,71.6 231.9,71.6 231.9,71.6 231.9,71.6 231.9,71.6 231.9,71.6 231.9,71.6 231.9,71.6 231.9,71.6 
		231.9,71.6 231.9,71.6 231.9,71.6 231.9,71.6 231.9,71.6 231.9,71.6 231.9,71.6 231.9,71.6 231.9,71.6 231.9,71.6 231.9,71.6 
		231.9,71.6 231.9,71.6 231.9,71.6 231.9,71.6 231.9,71.6 231.9,71.6 231.9,71.6 231.9,71.6 231.9,71.6 231.9,71.6 231.9,71.6 
		231.9,71.6 231.9,71.6 231.9,71.6 231.9,71.6 231.9,71.6 231.9,71.6 231.9,71.6 231.9,71.6 231.9,71.6 231.9,71.6 231.9,71.6 
		231.9,71.6 231.9,71.6 231.9,71.6 231.9,71.6 231.9,71.6 231.9,71.6 231.9,71.6 231.9,71.6 231.9,71.6 231.9,71.6 231.9,71.6 
		231.9,71.6 231.9,71.6 231.9,71.6 231.9,71.6 231.9,71.6 231.9,71.6 231.9,71.6 231.9,71.6 231.9,71.6 231.9,71.6 231.9,71.6 	"/>
	<g>
		<defs>
			<rect id="SVGID_00000052064296462419850170000002842990446806544053_" x="218.5" y="61.2" width="27" height="19"/>
		</defs>
		<clipPath id="SVGID_00000024708097793512318980000010173454558403127197_">
			<use xlink:href="#SVGID_00000052064296462419850170000002842990446806544053_"  style="overflow:visible;"/>
		</clipPath>
		
			<path style="opacity:0;clip-path:url(#SVGID_00000024708097793512318980000010173454558403127197_);fill:none;stroke:#000000;stroke-width:1.000000e-06;stroke-miterlimit:10;" d="
			M232,70.7L232,70.7z"/>
		<path style="clip-path:url(#SVGID_00000024708097793512318980000010173454558403127197_);" d="M220.3,70.5c0.7-2.7,2.5-3,3-3
			c0.8,0,1.3,0.5,1.3,1.1c0,1.9-2.9,1.9-3.6,1.9H220.3 M221.1,70.9c0.5,0,1.8,0,2.7-0.4c1.3-0.5,1.3-1.6,1.3-1.8
			c0-0.8-0.7-1.5-1.9-1.5c-2,0-4.7,1.7-4.7,4.9c0,1.8,1.1,3.2,2.8,3.2c2.6,0,4.1-1.9,4.1-2.1c0-0.1-0.1-0.2-0.2-0.2
			c-0.1,0-0.1,0-0.2,0.2c-1.4,1.8-3.4,1.8-3.6,1.8c-1.4,0-1.6-1.5-1.6-2.1c0-0.2,0-0.8,0.3-1.9H221.1z"/>
		<path style="clip-path:url(#SVGID_00000024708097793512318980000010173454558403127197_);" d="M232,79.3c0-0.1,0-0.1-0.3-0.4
			c-2.2-2.3-2.8-5.6-2.8-8.4c0-3.1,0.7-6.2,2.9-8.5c0.2-0.2,0.2-0.2,0.2-0.3c0-0.1-0.1-0.2-0.2-0.2c-0.2,0-1.8,1.2-2.8,3.5
			c-0.9,2-1.1,4-1.1,5.5c0,1.4,0.2,3.6,1.2,5.6c1.1,2.2,2.6,3.4,2.8,3.4C231.9,79.5,232,79.4,232,79.3"/>
		<path style="clip-path:url(#SVGID_00000024708097793512318980000010173454558403127197_);" d="M236.7,67.9h1.7
			c0.4,0,0.5,0,0.5-0.4c0-0.2-0.2-0.2-0.5-0.2h-1.6c0.6-2.5,0.7-2.9,0.7-3c0-0.3-0.2-0.5-0.5-0.5c-0.1,0-0.6,0-0.7,0.6l-0.7,2.8H234
			c-0.4,0-0.5,0-0.5,0.3c0,0.2,0.1,0.2,0.5,0.2h1.6c-1.3,5.1-1.4,5.4-1.4,5.7c0,1,0.7,1.6,1.6,1.6c1.8,0,2.8-2.6,2.8-2.8
			c0-0.2-0.1-0.2-0.2-0.2c-0.2,0-0.2,0.1-0.3,0.2c-0.8,1.9-1.7,2.3-2.3,2.3c-0.4,0-0.6-0.2-0.6-0.8c0-0.4,0-0.6,0.1-0.9L236.7,67.9"
			/>
		<path style="clip-path:url(#SVGID_00000024708097793512318980000010173454558403127197_);" d="M244.7,70.6c0-1.4-0.2-3.6-1.2-5.6
			c-1.1-2.2-2.6-3.4-2.8-3.4c-0.1,0-0.2,0.1-0.2,0.2c0,0.1,0,0.1,0.3,0.4c1.8,1.8,2.8,4.6,2.8,8.3c0,3.1-0.7,6.2-2.9,8.5
			c-0.2,0.2-0.2,0.2-0.2,0.3c0,0.1,0.1,0.2,0.2,0.2c0.2,0,1.8-1.2,2.8-3.5C244.5,74,244.7,72.1,244.7,70.6"/>
	</g>
	<polygon class="st1" points="163.8,70.5 163.8,70.5 163.8,70.5 163.8,70.5 163.8,70.5 163.8,70.5 163.8,70.5 163.8,70.5 
		163.8,70.5 163.8,70.5 163.8,70.5 163.8,70.5 163.8,70.5 163.8,70.5 163.8,70.5 163.8,70.5 163.8,70.5 163.8,70.5 163.8,70.5 
		163.8,70.5 163.8,70.5 163.8,70.5 163.8,70.5 163.8,70.5 163.8,70.5 163.8,70.5 163.8,70.5 163.8,70.5 163.8,70.5 163.8,70.5 
		163.8,70.5 163.8,70.5 163.8,70.5 163.8,70.5 163.8,70.5 163.8,70.5 163.8,70.5 163.8,70.5 163.8,70.5 163.8,70.5 163.8,70.5 
		163.8,70.5 163.8,70.5 163.8,70.5 163.8,70.5 163.8,70.5 163.8,70.5 163.8,70.5 163.8,70.5 163.8,70.5 163.8,70.5 163.8,70.5 
		163.8,70.5 163.8,70.5 163.8,70.5 163.8,70.5 163.8,70.5 163.8,70.5 163.8,70.5 163.8,70.5 163.8,70.5 163.8,70.5 163.8,70.5 
		163.8,70.5 163.8,70.5 163.8,70.5 163.8,70.5 163.8,70.5 163.8,70.5 163.8,70.5 163.8,70.5 163.8,70.5 163.8,70.5 163.8,70.5 
		163.8,70.5 163.8,70.5 163.8,70.5 163.8,70.5 163.8,70.5 163.8,70.5 163.8,70.5 163.8,70.5 163.8,70.5 163.8,70.5 	"/>
	<g>
		<defs>
			<rect id="SVGID_00000122681512118118485400000011823081489417368211_" x="156" y="64.2" width="13" height="13"/>
		</defs>
		<clipPath id="SVGID_00000044861682666765915070000013667288504315488652_">
			<use xlink:href="#SVGID_00000122681512118118485400000011823081489417368211_"  style="overflow:visible;"/>
		</clipPath>
		
			<path style="opacity:0;clip-path:url(#SVGID_00000044861682666765915070000013667288504315488652_);fill:none;stroke:#000000;stroke-width:1.000000e-06;stroke-miterlimit:10;" d="
			M163,70.7L163,70.7z"/>
		<path style="clip-path:url(#SVGID_00000044861682666765915070000013667288504315488652_);" d="M162.2,66c0.2-0.6,0.2-0.7,1-0.7
			h1.7c1.5,0,2.4,0.5,2.4,1.7c0,0.7-0.4,2.2-1.1,2.9c-0.9,0.8-2,0.9-2.8,0.9H161L162.2,66 M160.9,71.4h3c2.5,0,5-1.9,5-3.9
			c0-1.4-1.2-2.7-3.5-2.7h-5.8c-0.3,0-0.5,0-0.5,0.3c0,0.2,0.2,0.2,0.5,0.2c0.2,0,0.6,0,0.8,0c0.3,0,0.4,0.1,0.4,0.3
			c0,0.1,0,0.1-0.1,0.3l-2.4,9.6c-0.2,0.7-0.2,0.8-1.6,0.8c-0.3,0-0.5,0-0.5,0.3c0,0.2,0.2,0.2,0.3,0.2c0.5,0,1.8-0.1,2.3-0.1
			c0.4,0,0.8,0,1.1,0c0.4,0,0.8,0,1.2,0c0.1,0,0.4,0,0.4-0.4c0-0.2-0.2-0.2-0.5-0.2c-0.7,0-1.2,0-1.2-0.3c0-0.1,0-0.2,0.1-0.3
			L160.9,71.4z"/>
	</g>
</g>
<g>
	<rect x="152.4" y="111.3" class="st6" width="94.1" height="23"/>
	<polygon class="st1" points="165.3,123.3 165.3,123.3 165.3,123.3 165.3,123.3 165.3,123.3 165.3,123.3 165.3,123.3 165.3,123.3 
		165.3,123.3 165.3,123.3 165.3,123.3 165.3,123.3 165.3,123.3 165.3,123.3 165.3,123.3 165.3,123.3 165.3,123.3 165.3,123.3 
		165.3,123.3 165.3,123.3 165.3,123.3 165.3,123.3 165.3,123.3 165.3,123.3 165.3,123.3 165.3,123.3 165.3,123.3 165.3,123.3 
		165.3,123.3 165.3,123.3 165.3,123.3 165.3,123.3 165.3,123.3 165.3,123.3 165.3,123.3 165.3,123.3 165.3,123.3 165.3,123.3 
		165.3,123.3 165.3,123.3 165.3,123.3 165.3,123.3 165.3,123.3 165.3,123.3 165.3,123.3 165.3,123.3 165.3,123.3 165.3,123.3 
		165.3,123.3 165.3,123.3 165.3,123.3 165.3,123.3 165.3,123.3 165.3,123.3 165.3,123.3 165.3,123.3 165.3,123.3 165.3,123.3 
		165.3,123.3 165.3,123.3 165.3,123.3 165.3,123.3 165.3,123.3 165.3,123.3 165.3,123.3 165.3,123.3 165.3,123.3 165.3,123.3 
		165.3,123.3 165.3,123.3 165.3,123.3 165.3,123.3 165.3,123.3 165.3,123.3 165.3,123.3 165.3,123.3 165.3,123.3 165.3,123.3 
		165.3,123.3 165.3,123.3 165.3,123.3 165.3,123.3 165.3,123.3 165.3,123.3 165.3,123.3 165.3,123.3 	"/>
	<g>
		<defs>
			<rect id="SVGID_00000159462137909703744160000005853238926293705891_" x="192.5" y="114.9" width="23" height="16"/>
		</defs>
		<clipPath id="SVGID_00000060008698018582774710000000480405588820956840_">
			<use xlink:href="#SVGID_00000159462137909703744160000005853238926293705891_"  style="overflow:visible;"/>
		</clipPath>
		
			<path style="opacity:0;clip-path:url(#SVGID_00000060008698018582774710000000480405588820956840_);fill:none;stroke:#000000;stroke-width:1.000000e-06;stroke-miterlimit:10;" d="
			M204,122.9L204,122.9z"/>
		<path style="clip-path:url(#SVGID_00000060008698018582774710000000480405588820956840_);" d="M201.8,120.4c0-0.1-0.1-0.2-0.1-0.2
			c0,0,0.3-0.3,0.5-0.4l3.1-2.4c1.7-1.2,2.4-1.3,2.9-1.4c0.1,0,0.3,0,0.3-0.4c0-0.1-0.1-0.2-0.2-0.2c-0.4,0-0.8,0.1-1.3,0.1
			c-0.6,0-1.3-0.1-2-0.1c-0.1,0-0.3,0-0.3,0.4c0,0.1,0.1,0.2,0.2,0.2c0.4,0,0.6,0.1,0.6,0.4c0,0.3-0.5,0.7-0.6,0.8l-7,5.4l1.4-5.7
			c0.2-0.6,0.2-0.8,1.5-0.8c0.4,0,0.6,0,0.6-0.4c0-0.2-0.1-0.2-0.2-0.2c-0.5,0-1.8,0.1-2.3,0.1c-0.5,0-1.8-0.1-2.3-0.1
			c-0.1,0-0.4,0-0.4,0.3c0,0.2,0.2,0.2,0.5,0.2c0.2,0,0.6,0,0.8,0c0.3,0,0.4,0.1,0.4,0.3c0,0.1,0,0.1-0.1,0.3l-2.4,9.6
			c-0.2,0.7-0.2,0.8-1.6,0.8c-0.3,0-0.5,0-0.5,0.3c0,0.2,0.2,0.2,0.3,0.2c0.5,0,1.8-0.1,2.3-0.1c0.4,0,0.8,0,1.1,0
			c0.4,0,0.8,0,1.2,0c0.1,0,0.4,0,0.4-0.4c0-0.2-0.2-0.2-0.5-0.2c-0.7,0-1.2,0-1.2-0.3c0-0.1,0.1-0.5,0.2-0.8
			c0.2-0.9,0.5-1.9,0.7-2.8l2.7-2.1l2.1,4.8c0.2,0.5,0.2,0.5,0.2,0.6c0,0.5-0.8,0.6-0.9,0.6c-0.2,0-0.4,0-0.4,0.4
			c0,0.2,0.2,0.2,0.3,0.2c0.7,0,1.5-0.1,2.2-0.1c0.4,0,1.4,0.1,1.8,0.1c0.1,0,0.3,0,0.3-0.4c0-0.2-0.2-0.2-0.4-0.2
			c-0.7,0-1-0.2-1.2-0.8L201.8,120.4"/>
		<path style="clip-path:url(#SVGID_00000060008698018582774710000000480405588820956840_);" d="M213.1,122.8
			c0.1-0.4,0.1-0.5,1.1-0.5c0.3,0,0.5,0,0.5-0.3c0-0.1-0.1-0.2-0.2-0.2c-0.3,0-0.6,0-0.8,0c-0.3,0-0.6,0-0.9,0l-0.9,0
			c-0.3,0-0.6,0-0.9,0c-0.1,0-0.3,0-0.3,0.3c0,0.2,0.1,0.2,0.4,0.2c0,0,0.3,0,0.5,0c0.2,0,0.3,0,0.3,0.2c0,0.1,0,0.2-0.1,0.3
			l-1.7,6.7c-0.1,0.4-0.1,0.5-1.1,0.5c-0.3,0-0.5,0-0.5,0.3c0,0,0,0.2,0.2,0.2c0.4,0,1.3-0.1,1.7-0.1l0.9,0c0.3,0,0.6,0,0.9,0
			c0.1,0,0.3,0,0.3-0.3c0-0.2-0.2-0.2-0.4-0.2c0,0-0.3,0-0.5,0c-0.3,0-0.3-0.1-0.3-0.2c0,0,0-0.1,0.1-0.3L213.1,122.8"/>
	</g>
	<g>
		<defs>
			<rect id="SVGID_00000139257635794465808750000010939699751974494651_" x="218.5" y="113.4" width="27" height="19"/>
		</defs>
		<clipPath id="SVGID_00000127755229808730396810000001475001573221133226_">
			<use xlink:href="#SVGID_00000139257635794465808750000010939699751974494651_"  style="overflow:visible;"/>
		</clipPath>
		
			<path style="opacity:0;clip-path:url(#SVGID_00000127755229808730396810000001475001573221133226_);fill:none;stroke:#000000;stroke-width:1.000000e-06;stroke-miterlimit:10;" d="
			M232,122.9L232,122.9z"/>
		<path style="clip-path:url(#SVGID_00000127755229808730396810000001475001573221133226_);" d="M220.3,122.6c0.7-2.7,2.5-3,3-3
			c0.8,0,1.3,0.5,1.3,1.1c0,1.9-2.9,1.9-3.6,1.9H220.3 M221.1,123c0.5,0,1.8,0,2.7-0.4c1.3-0.5,1.3-1.6,1.3-1.8
			c0-0.8-0.7-1.5-1.9-1.5c-2,0-4.7,1.7-4.7,4.9c0,1.8,1.1,3.2,2.8,3.2c2.6,0,4.1-1.9,4.1-2.1c0-0.1-0.1-0.2-0.2-0.2
			c-0.1,0-0.1,0-0.2,0.2c-1.4,1.8-3.4,1.8-3.6,1.8c-1.4,0-1.6-1.5-1.6-2.1c0-0.2,0-0.8,0.3-1.9H221.1z"/>
		<path style="clip-path:url(#SVGID_00000127755229808730396810000001475001573221133226_);" d="M232,131.5c0-0.1,0-0.1-0.3-0.4
			c-2.2-2.3-2.8-5.6-2.8-8.4c0-3.1,0.7-6.2,2.9-8.5c0.2-0.2,0.2-0.2,0.2-0.3c0-0.1-0.1-0.2-0.2-0.2c-0.2,0-1.8,1.2-2.8,3.5
			c-0.9,2-1.1,4-1.1,5.5c0,1.4,0.2,3.6,1.2,5.6c1.1,2.2,2.6,3.4,2.8,3.4C231.9,131.6,232,131.6,232,131.5"/>
		<path style="clip-path:url(#SVGID_00000127755229808730396810000001475001573221133226_);" d="M236.7,120h1.7c0.4,0,0.5,0,0.5-0.4
			c0-0.2-0.2-0.2-0.5-0.2h-1.6c0.6-2.5,0.7-2.9,0.7-3c0-0.3-0.2-0.5-0.5-0.5c-0.1,0-0.6,0-0.7,0.6l-0.7,2.8H234
			c-0.4,0-0.5,0-0.5,0.3c0,0.2,0.1,0.2,0.5,0.2h1.6c-1.3,5.1-1.4,5.4-1.4,5.7c0,1,0.7,1.6,1.6,1.6c1.8,0,2.8-2.6,2.8-2.8
			c0-0.2-0.1-0.2-0.2-0.2c-0.2,0-0.2,0.1-0.3,0.2c-0.8,1.9-1.7,2.3-2.3,2.3c-0.4,0-0.6-0.2-0.6-0.8c0-0.4,0-0.6,0.1-0.9L236.7,120"
			/>
		<path style="clip-path:url(#SVGID_00000127755229808730396810000001475001573221133226_);" d="M244.7,122.7c0-1.4-0.2-3.6-1.2-5.6
			c-1.1-2.2-2.6-3.4-2.8-3.4c-0.1,0-0.2,0.1-0.2,0.2c0,0.1,0,0.1,0.3,0.4c1.8,1.8,2.8,4.6,2.8,8.3c0,3.1-0.7,6.2-2.9,8.5
			c-0.2,0.2-0.2,0.2-0.2,0.3c0,0.1,0.1,0.2,0.2,0.2c0.2,0,1.8-1.2,2.8-3.5C244.5,126.2,244.7,124.2,244.7,122.7"/>
	</g>
	<polygon class="st1" points="163.1,124 163.1,124 163.1,124 163.1,124 163.1,124 163.1,124 163.1,124 163.1,124 163.1,124 
		163.1,124 163.1,124 163.1,124 163.1,124 163.1,124 163.1,124 163.1,124 163.1,124 163.1,124 163.1,124 163.1,124 163.1,124 
		163.1,124 163.1,124 163.1,124 163.1,124 163.1,124 163.1,124 163.1,124 163.1,124 163.1,124 163.1,124 163.1,124 163.1,124 
		163.1,124 163.1,124 163.1,124 163.1,124 163.1,124 163.1,124 163.1,124 163.1,124 163.1,124 163.1,124 163.1,124 163.1,124 
		163.1,124 163.1,124 163.1,124 163.1,124 163.1,124 163.1,124 163.1,124 163.1,124 163.1,124 163.1,124 163.1,124 163.1,124 
		163.1,124 163.1,124 163.1,124 163.1,124 163.1,124 163.1,124 163.1,124 163.1,124 163.1,124 163.1,124 163.1,124 163.1,124 
		163.1,124 163.1,124 163.1,124 163.1,124 163.1,124 163.1,124 163.1,124 163.1,124 163.1,124 163.1,124 163.1,124 163.1,124 
		163.1,124 163.1,124 163.1,124 163.1,124 	"/>
	<g>
		<defs>
			<rect id="SVGID_00000082362138202995495880000000245726302210350498_" x="158" y="116.4" width="9" height="13"/>
		</defs>
		<clipPath id="SVGID_00000036241647410091071450000005074356669083868052_">
			<use xlink:href="#SVGID_00000082362138202995495880000000245726302210350498_"  style="overflow:visible;"/>
		</clipPath>
		
			<path style="opacity:0;clip-path:url(#SVGID_00000036241647410091071450000005074356669083868052_);fill:none;stroke:#000000;stroke-width:1.000000e-06;stroke-miterlimit:10;" d="
			M162.5,122.9L162.5,122.9z"/>
		<path style="clip-path:url(#SVGID_00000036241647410091071450000005074356669083868052_);" d="M164.7,118.3
			c0.2-0.6,0.2-0.8,1.6-0.8c0.4,0,0.6,0,0.6-0.3c0-0.2-0.2-0.2-0.3-0.2c-0.5,0-1.8,0.1-2.4,0.1c-0.5,0-1.8-0.1-2.4-0.1
			c-0.1,0-0.4,0-0.4,0.4c0,0.2,0.2,0.2,0.5,0.2c0.8,0,1.2,0,1.2,0.3c0,0.1,0,0.1,0,0.3l-2.4,9.6c-0.2,0.7-0.2,0.8-1.6,0.8
			c-0.4,0-0.6,0-0.6,0.4c0,0.2,0.2,0.2,0.3,0.2c0.5,0,1.8-0.1,2.3-0.1c0.5,0,1.9,0.1,2.4,0.1c0.1,0,0.4,0,0.4-0.3
			c0-0.2-0.1-0.2-0.5-0.2c-0.3,0-0.4,0-0.8,0c-0.4,0-0.4-0.1-0.4-0.3c0-0.1,0-0.3,0.1-0.4L164.7,118.3"/>
	</g>
</g>
<g>
	<rect x="152.4" y="163.5" class="st6" width="94.1" height="23"/>
	<polygon class="st1" points="203.5,175.5 203.5,175.5 203.5,175.5 203.5,175.5 203.5,175.5 203.5,175.5 203.5,175.5 203.5,175.5 
		203.5,175.5 203.5,175.5 203.5,175.5 203.5,175.5 203.5,175.5 203.5,175.5 203.5,175.5 203.5,175.5 203.5,175.5 203.5,175.5 
		203.5,175.5 203.5,175.5 203.5,175.5 203.5,175.5 203.5,175.5 203.5,175.5 203.5,175.5 203.5,175.5 203.5,175.5 203.5,175.5 
		203.5,175.5 203.5,175.5 203.5,175.5 203.5,175.5 203.5,175.5 203.5,175.5 203.5,175.5 203.5,175.5 203.5,175.5 203.5,175.5 
		203.5,175.5 203.5,175.5 203.5,175.5 203.5,175.5 203.5,175.5 203.5,175.5 203.5,175.5 203.5,175.5 203.5,175.5 203.5,175.5 
		203.5,175.5 203.5,175.5 203.5,175.5 203.5,175.5 203.5,175.5 203.5,175.5 203.5,175.5 203.5,175.5 203.5,175.5 203.5,175.5 
		203.5,175.5 203.5,175.5 203.5,175.5 203.5,175.5 203.5,175.5 203.5,175.5 203.5,175.5 203.5,175.5 203.5,175.5 203.5,175.5 
		203.5,175.5 203.5,175.5 203.5,175.5 203.5,175.5 203.5,175.5 203.5,175.5 203.5,175.5 203.5,175.5 203.5,175.5 203.5,175.5 
		203.5,175.5 203.5,175.5 203.5,175.5 203.5,175.5 203.5,175.5 203.5,175.5 203.5,175.5 203.5,175.5 	"/>
	<g>
		<defs>
			<rect id="SVGID_00000147181462159534691460000007150535812175318174_" x="191" y="167" width="26" height="16"/>
		</defs>
		<clipPath id="SVGID_00000140008952305772764670000005538405889155960485_">
			<use xlink:href="#SVGID_00000147181462159534691460000007150535812175318174_"  style="overflow:visible;"/>
		</clipPath>
		
			<path style="opacity:0;clip-path:url(#SVGID_00000140008952305772764670000005538405889155960485_);fill:none;stroke:#000000;stroke-width:1.000000e-06;stroke-miterlimit:10;" d="
			M204,175L204,175z"/>
		<path style="clip-path:url(#SVGID_00000140008952305772764670000005538405889155960485_);" d="M199.7,172.6c0-0.1-0.1-0.2-0.1-0.2
			c0,0,0.3-0.3,0.5-0.4l3.1-2.4c1.7-1.2,2.4-1.3,2.9-1.4c0.1,0,0.3,0,0.3-0.4c0-0.1-0.1-0.2-0.2-0.2c-0.4,0-0.8,0.1-1.3,0.1
			c-0.6,0-1.3-0.1-2-0.1c-0.1,0-0.3,0-0.3,0.4c0,0.1,0.1,0.2,0.2,0.2c0.4,0,0.6,0.1,0.6,0.4c0,0.3-0.5,0.7-0.6,0.8l-7,5.4l1.4-5.7
			c0.2-0.6,0.2-0.8,1.5-0.8c0.4,0,0.6,0,0.6-0.4c0-0.2-0.1-0.2-0.2-0.2c-0.5,0-1.8,0.1-2.3,0.1c-0.5,0-1.8-0.1-2.3-0.1
			c-0.1,0-0.4,0-0.4,0.3c0,0.2,0.2,0.2,0.5,0.2c0.2,0,0.6,0,0.8,0c0.3,0,0.4,0.1,0.4,0.3c0,0.1,0,0.1-0.1,0.3l-2.4,9.6
			c-0.2,0.7-0.2,0.8-1.6,0.8c-0.3,0-0.5,0-0.5,0.3c0,0.2,0.2,0.2,0.3,0.2c0.5,0,1.8-0.1,2.3-0.1c0.4,0,0.8,0,1.1,0
			c0.4,0,0.8,0,1.2,0c0.1,0,0.4,0,0.4-0.4c0-0.2-0.2-0.2-0.5-0.2c-0.7,0-1.2,0-1.2-0.3c0-0.1,0.1-0.5,0.2-0.8
			c0.2-0.9,0.5-1.9,0.7-2.8l2.7-2.1l2.1,4.8c0.2,0.5,0.2,0.5,0.2,0.6c0,0.5-0.8,0.6-0.9,0.6c-0.2,0-0.4,0-0.4,0.4
			c0,0.2,0.2,0.2,0.3,0.2c0.7,0,1.5-0.1,2.2-0.1c0.4,0,1.4,0.1,1.8,0.1c0.1,0,0.3,0,0.3-0.4c0-0.2-0.2-0.2-0.4-0.2
			c-0.7,0-1-0.2-1.2-0.8L199.7,172.6"/>
		<path style="clip-path:url(#SVGID_00000140008952305772764670000005538405889155960485_);" d="M211,174.8c0.1-0.4,0.1-0.4,0.6-0.4
			h1.6c1.4,0,2.6,0.7,2.6,2.4c0,0.3-0.1,2.5-1.4,3.9c-0.5,0.6-1.6,1.4-3.1,1.4h-1.7c-0.4,0-0.4,0-0.4-0.1c0,0,0-0.1,0.1-0.3
			L211,174.8 M208.2,181.5c-0.1,0.4-0.1,0.5-1.1,0.5c-0.2,0-0.4,0-0.4,0.3c0,0.2,0.2,0.2,0.4,0.2h4.5c2.8,0,5.5-2.6,5.5-5.3
			c0-1.8-1.3-3.3-3.3-3.3h-4.6c-0.2,0-0.4,0-0.4,0.3c0,0.2,0.1,0.2,0.4,0.2c0.2,0,0.3,0,0.5,0c0.3,0,0.3,0.1,0.3,0.2
			c0,0,0,0.1-0.1,0.3L208.2,181.5z"/>
	</g>
	<g>
		<defs>
			<rect id="SVGID_00000156567103818264760460000010199088874289319047_" x="218.5" y="165.5" width="27" height="19"/>
		</defs>
		<clipPath id="SVGID_00000111877953010148222150000000061338187714992518_">
			<use xlink:href="#SVGID_00000156567103818264760460000010199088874289319047_"  style="overflow:visible;"/>
		</clipPath>
		
			<path style="opacity:0;clip-path:url(#SVGID_00000111877953010148222150000000061338187714992518_);fill:none;stroke:#000000;stroke-width:1.000000e-06;stroke-miterlimit:10;" d="
			M232,175L232,175z"/>
		<path style="clip-path:url(#SVGID_00000111877953010148222150000000061338187714992518_);" d="M220.3,174.8c0.7-2.7,2.5-3,3-3
			c0.8,0,1.3,0.5,1.3,1.1c0,1.9-2.9,1.9-3.6,1.9H220.3 M221.1,175.2c0.5,0,1.8,0,2.7-0.4c1.3-0.5,1.3-1.6,1.3-1.8
			c0-0.8-0.7-1.5-1.9-1.5c-2,0-4.7,1.7-4.7,4.9c0,1.8,1.1,3.2,2.8,3.2c2.6,0,4.1-1.9,4.1-2.1c0-0.1-0.1-0.2-0.2-0.2
			c-0.1,0-0.1,0-0.2,0.2c-1.4,1.8-3.4,1.8-3.6,1.8c-1.4,0-1.6-1.5-1.6-2.1c0-0.2,0-0.8,0.3-1.9H221.1z"/>
		<path style="clip-path:url(#SVGID_00000111877953010148222150000000061338187714992518_);" d="M232,183.6c0-0.1,0-0.1-0.3-0.4
			c-2.2-2.3-2.8-5.6-2.8-8.4c0-3.1,0.7-6.2,2.9-8.5c0.2-0.2,0.2-0.2,0.2-0.3c0-0.1-0.1-0.2-0.2-0.2c-0.2,0-1.8,1.2-2.8,3.5
			c-0.9,2-1.1,4-1.1,5.5c0,1.4,0.2,3.6,1.2,5.6c1.1,2.2,2.6,3.4,2.8,3.4C231.9,183.8,232,183.7,232,183.6"/>
		<path style="clip-path:url(#SVGID_00000111877953010148222150000000061338187714992518_);" d="M236.7,172.1h1.7
			c0.4,0,0.5,0,0.5-0.4c0-0.2-0.2-0.2-0.5-0.2h-1.6c0.6-2.5,0.7-2.9,0.7-3c0-0.3-0.2-0.5-0.5-0.5c-0.1,0-0.6,0-0.7,0.6l-0.7,2.8H234
			c-0.4,0-0.5,0-0.5,0.3c0,0.2,0.1,0.2,0.5,0.2h1.6c-1.3,5.1-1.4,5.4-1.4,5.7c0,1,0.7,1.6,1.6,1.6c1.8,0,2.8-2.6,2.8-2.8
			c0-0.2-0.1-0.2-0.2-0.2c-0.2,0-0.2,0.1-0.3,0.2c-0.8,1.9-1.7,2.3-2.3,2.3c-0.4,0-0.6-0.2-0.6-0.8c0-0.4,0-0.6,0.1-0.9L236.7,172.1
			"/>
		<path style="clip-path:url(#SVGID_00000111877953010148222150000000061338187714992518_);" d="M244.7,174.8c0-1.4-0.2-3.6-1.2-5.6
			c-1.1-2.2-2.6-3.4-2.8-3.4c-0.1,0-0.2,0.1-0.2,0.2c0,0.1,0,0.1,0.3,0.4c1.8,1.8,2.8,4.6,2.8,8.3c0,3.1-0.7,6.2-2.9,8.5
			c-0.2,0.2-0.2,0.2-0.2,0.3c0,0.1,0.1,0.2,0.2,0.2c0.2,0,1.8-1.2,2.8-3.5C244.5,178.3,244.7,176.3,244.7,174.8"/>
	</g>
	<polygon class="st1" points="163.4,175.7 163.4,175.7 163.4,175.7 163.4,175.7 163.4,175.7 163.4,175.7 163.4,175.7 163.4,175.7 
		163.4,175.7 163.4,175.7 163.4,175.7 163.4,175.7 163.4,175.7 163.4,175.7 163.4,175.7 163.4,175.7 163.4,175.7 163.4,175.7 
		163.4,175.7 163.4,175.7 163.4,175.7 163.4,175.7 163.4,175.7 163.4,175.7 163.4,175.7 163.4,175.7 163.4,175.7 163.4,175.7 
		163.4,175.7 163.4,175.7 163.4,175.7 163.4,175.7 163.4,175.7 163.4,175.7 163.4,175.7 163.4,175.7 163.4,175.7 163.4,175.7 
		163.4,175.7 163.4,175.7 163.4,175.7 163.4,175.7 163.4,175.7 163.4,175.7 163.4,175.7 163.4,175.7 163.4,175.7 163.4,175.7 
		163.4,175.7 163.4,175.7 163.4,175.7 163.4,175.7 163.4,175.7 163.4,175.7 163.4,175.7 163.4,175.7 163.4,175.7 163.4,175.7 
		163.4,175.7 163.4,175.7 163.4,175.7 163.4,175.7 163.4,175.7 163.4,175.7 163.4,175.7 163.4,175.7 163.4,175.7 163.4,175.7 
		163.4,175.7 163.4,175.7 163.4,175.7 163.4,175.7 163.4,175.7 163.4,175.7 163.4,175.7 163.4,175.7 163.4,175.7 163.4,175.7 
		163.4,175.7 163.4,175.7 163.4,175.7 163.4,175.7 163.4,175.7 163.4,175.7 163.4,175.7 	"/>
	<g>
		<defs>
			<rect id="SVGID_00000152244294019457492510000000329365180397629824_" x="155.5" y="168.5" width="14" height="13"/>
		</defs>
		<clipPath id="SVGID_00000080912232914382091680000004007743623319820197_">
			<use xlink:href="#SVGID_00000152244294019457492510000000329365180397629824_"  style="overflow:visible;"/>
		</clipPath>
		
			<path style="opacity:0;clip-path:url(#SVGID_00000080912232914382091680000004007743623319820197_);fill:none;stroke:#000000;stroke-width:1.000000e-06;stroke-miterlimit:10;" d="
			M163,175L163,175z"/>
		<path style="clip-path:url(#SVGID_00000080912232914382091680000004007743623319820197_);" d="M161.8,170.3c0.2-0.6,0.2-0.7,1-0.7
			h1.9c1.8,0,3.2,0.9,3.2,3.3c0,0.9-0.4,3.8-1.9,5.8c-0.5,0.7-1.9,2-4.1,2h-2c-0.2,0-0.3,0-0.4,0c-0.2,0-0.2,0-0.2-0.2
			c0-0.1,0-0.1,0.1-0.4L161.8,170.3 M157.9,179.9c-0.2,0.7-0.2,0.8-1.6,0.8c-0.3,0-0.5,0-0.5,0.3c0,0.2,0.2,0.2,0.5,0.2h5.9
			c3.7,0,7.2-3.8,7.2-7.7c0-2.5-1.5-4.5-4.2-4.5h-6c-0.3,0-0.5,0-0.5,0.3c0,0.2,0.2,0.2,0.5,0.2c0.2,0,0.6,0,0.8,0
			c0.3,0,0.4,0.1,0.4,0.3c0,0.1,0,0.1-0.1,0.3L157.9,179.9z"/>
	</g>
</g>
<g>
	<rect x="343.8" y="111.3" class="st6" width="94.1" height="23"/>
	<polygon class="st1" points="386.7,121.5 386.7,121.5 386.7,121.5 386.7,121.5 386.7,121.5 386.7,121.5 386.7,121.5 386.7,121.5 
		386.7,121.5 386.7,121.5 386.7,121.5 386.7,121.5 386.7,121.5 386.7,121.5 386.7,121.5 386.7,121.5 386.7,121.5 386.7,121.5 
		386.7,121.5 386.7,121.5 386.7,121.5 386.7,121.5 386.7,121.5 386.7,121.5 386.7,121.5 386.7,121.5 386.7,121.5 386.7,121.5 
		386.7,121.5 386.7,121.5 386.7,121.5 386.7,121.5 386.7,121.5 386.7,121.5 386.7,121.5 386.7,121.5 386.7,121.5 386.7,121.5 
		386.7,121.5 386.7,121.5 386.7,121.5 386.7,121.5 386.7,121.5 386.7,121.5 386.7,121.5 386.7,121.5 386.7,121.5 386.7,121.5 
		386.7,121.5 386.7,121.5 386.7,121.5 386.7,121.5 386.7,121.5 386.7,121.5 386.7,121.5 386.7,121.5 386.7,121.5 386.7,121.5 
		386.7,121.5 386.7,121.5 386.7,121.5 386.7,121.5 386.7,121.5 386.7,121.5 386.7,121.5 386.7,121.5 386.7,121.5 386.7,121.5 
		386.7,121.5 386.7,121.5 386.7,121.5 386.7,121.5 386.7,121.5 386.7,121.5 386.7,121.5 386.7,121.5 386.7,121.5 386.7,121.5 
		386.7,121.5 386.7,121.5 386.7,121.5 386.7,121.5 386.7,121.5 386.7,121.5 386.7,121.5 	"/>
	<polygon class="st1" points="389,122.8 389,122.8 389,122.8 389,122.8 389,122.8 389,122.8 389,122.8 389,122.8 389,122.8 
		389,122.8 389,122.8 389,122.8 389,122.8 389,122.8 389,122.8 389,122.8 389,122.8 389,122.8 389,122.8 389,122.8 389,122.8 
		389,122.8 389,122.8 389,122.8 389,122.8 389,122.8 389,122.8 389,122.8 389,122.8 389,122.8 389,122.8 389,122.8 389,122.8 
		389,122.8 389,122.8 389,122.8 389,122.8 389,122.8 389,122.8 389,122.8 389,122.8 389,122.8 389,122.8 389,122.8 389,122.8 
		389,122.8 389,122.8 389,122.8 389,122.8 389,122.8 389,122.8 389,122.8 389,122.8 389,122.8 389,122.8 389,122.8 389,122.8 
		389,122.8 389,122.8 389,122.8 389,122.8 389,122.8 389,122.8 389,122.8 389,122.8 389,122.8 389,122.8 389,122.8 389,122.8 
		389,122.8 389,122.8 389,122.8 389,122.8 389,122.8 389,122.8 389,122.8 389,122.8 389,122.8 389,122.8 389,122.8 389,122.8 
		389,122.8 389,122.8 389,122.8 389,122.8 389,122.8 	"/>
	<g>
		<defs>
			<rect id="SVGID_00000183963719196911506950000008996765920756925104_" x="359.8" y="115.9" width="62" height="14"/>
		</defs>
		<clipPath id="SVGID_00000128446706220937662800000013891294485961035403_">
			<use xlink:href="#SVGID_00000183963719196911506950000008996765920756925104_"  style="overflow:visible;"/>
		</clipPath>
		
			<path style="opacity:0;clip-path:url(#SVGID_00000128446706220937662800000013891294485961035403_);fill:none;stroke:#000000;stroke-width:1.000000e-06;stroke-miterlimit:10;" d="
			M390.8,122.9L390.8,122.9z"/>
	</g>
	<g>
		<defs>
			<rect id="SVGID_00000047738827346265856660000002494800127532249502_" x="360.3" y="115.9" width="61.1" height="14"/>
		</defs>
		<clipPath id="SVGID_00000097464503632871257830000001230902026395012782_">
			<use xlink:href="#SVGID_00000047738827346265856660000002494800127532249502_"  style="overflow:visible;"/>
		</clipPath>
		<path style="clip-path:url(#SVGID_00000097464503632871257830000001230902026395012782_);" d="M365.9,119.2l2,5.8h-4L365.9,119.2z
			 M366.8,117.2c-0.1-0.2-0.1-0.4-0.4-0.4c-0.3,0-0.3,0.1-0.4,0.4l-3.7,10.7c-0.3,0.9-1,1.2-2,1.2v0.6c0.4,0,1.2-0.1,1.8-0.1
			c0.6,0,1.5,0,2.1,0.1v-0.6c-0.9,0-1.3-0.4-1.3-0.9c0-0.1,0-0.2,0-0.3l0.8-2.3h4.4l0.9,2.7c0,0.1,0.1,0.2,0.1,0.2
			c0,0.5-1,0.5-1.5,0.5v0.6c0.6-0.1,1.9-0.1,2.6-0.1c0.8,0,1.6,0,2.3,0.1v-0.6h-0.3c-1.1,0-1.3-0.1-1.5-0.7L366.8,117.2z"/>
		<path style="clip-path:url(#SVGID_00000097464503632871257830000001230902026395012782_);" d="M376.5,118.6c0-0.6-0.4-0.9-0.9-0.9
			c-0.6,0-0.9,0.5-0.9,0.9c0,0.5,0.4,0.9,0.9,0.9C376,119.6,376.5,119.2,376.5,118.6 M376.4,121.8l-2.5,0.2v0.6c1.2,0,1.3,0.1,1.3,1
			v4.8c0,0.8-0.2,0.8-1.4,0.8v0.6c0.6,0,1.5-0.1,2-0.1c0.6,0,1.3,0,1.9,0.1v-0.6c-1.2,0-1.3-0.1-1.3-0.8V121.8z"/>
		<path style="clip-path:url(#SVGID_00000097464503632871257830000001230902026395012782_);" d="M381.2,123.7v-2l-2.5,0.2v0.6
			c1.3,0,1.4,0.1,1.4,1v4.8c0,0.8-0.2,0.8-1.4,0.8v0.6c0.7,0,1.5-0.1,2-0.1c0.7,0,1.6,0,2.3,0.1v-0.6h-0.4c-1.3,0-1.4-0.2-1.4-0.8
			v-2.8c0-1.8,0.8-3.4,2.1-3.4c0.1,0,0.2,0,0.2,0c-0.1,0-0.4,0.2-0.4,0.7c0,0.5,0.4,0.8,0.8,0.8c0.3,0,0.8-0.2,0.8-0.8
			c0-0.6-0.6-1.1-1.3-1.1C382.1,121.8,381.5,123,381.2,123.7"/>
		<path style="clip-path:url(#SVGID_00000097464503632871257830000001230902026395012782_);" d="M387.3,125.8c0-2.9,1.5-3.7,2.4-3.7
			c0.2,0,1.3,0,1.9,0.7c-0.7,0.1-0.8,0.6-0.8,0.8c0,0.5,0.3,0.8,0.8,0.8c0.5,0,0.8-0.3,0.8-0.8c0-1.2-1.4-1.9-2.7-1.9
			c-2.2,0-3.9,1.9-3.9,4.1c0,2.3,1.8,4.1,3.8,4.1c2.4,0,3-2.1,3-2.3c0-0.2-0.2-0.2-0.2-0.2c-0.2,0-0.2,0.1-0.2,0.2
			c-0.5,1.7-1.7,1.9-2.3,1.9C388.9,129.4,387.3,128.6,387.3,125.8"/>
		<path style="clip-path:url(#SVGID_00000097464503632871257830000001230902026395012782_);" d="M396.1,123.7v-2l-2.5,0.2v0.6
			c1.3,0,1.4,0.1,1.4,1v4.8c0,0.8-0.2,0.8-1.4,0.8v0.6c0.7,0,1.5-0.1,2-0.1c0.7,0,1.6,0,2.3,0.1v-0.6h-0.4c-1.3,0-1.4-0.2-1.4-0.8
			v-2.8c0-1.8,0.8-3.4,2.1-3.4c0.1,0,0.2,0,0.2,0c-0.1,0-0.4,0.2-0.4,0.7c0,0.5,0.4,0.8,0.8,0.8c0.3,0,0.8-0.2,0.8-0.8
			c0-0.6-0.6-1.1-1.3-1.1C397,121.8,396.4,123,396.1,123.7"/>
		<path style="clip-path:url(#SVGID_00000097464503632871257830000001230902026395012782_);" d="M406.1,125.4v1.8
			c0,1.7-1.3,2.3-2.1,2.3c-0.9,0-1.6-0.6-1.6-1.5C402.4,127,403.1,125.5,406.1,125.4 M406.2,128.3c0.1,0.7,0.6,1.5,1.4,1.5
			c0.4,0,1.5-0.3,1.5-1.7v-1h-0.4v1c0,1-0.4,1.1-0.6,1.1c-0.6,0-0.7-0.8-0.7-0.9v-3.6c0-0.8,0-1.4-0.6-2.1c-0.7-0.7-1.6-1-2.4-1
			c-1.5,0-2.7,0.8-2.7,2c0,0.5,0.4,0.8,0.8,0.8c0.5,0,0.8-0.4,0.8-0.8c0-0.2-0.1-0.8-0.9-0.8c0.5-0.6,1.4-0.8,1.9-0.8
			c0.9,0,1.9,0.7,1.9,2.3v0.7c-0.9,0.1-2.2,0.1-3.3,0.6c-1.3,0.6-1.8,1.5-1.8,2.3c0,1.4,1.7,1.9,2.9,1.9
			C405,129.9,405.8,129.1,406.2,128.3z"/>
		<path style="clip-path:url(#SVGID_00000097464503632871257830000001230902026395012782_);" d="M412.3,122v-2.1
			c0-1.6,0.9-2.4,1.6-2.4c0.1,0,0.3,0,0.6,0.1c-0.2,0.1-0.5,0.3-0.5,0.8c0,0.4,0.3,0.8,0.8,0.8c0.5,0,0.8-0.4,0.8-0.8
			c0-0.7-0.7-1.3-1.6-1.3c-1.3,0-2.8,0.9-2.8,2.8v2.1h-1.4v0.6h1.4v5.8c0,0.8-0.2,0.8-1.4,0.8v0.6c0.7,0,1.5-0.1,2-0.1
			c0.7,0,1.6,0,2.3,0.1v-0.6h-0.4c-1.3,0-1.4-0.2-1.4-0.8v-5.8h2V122H412.3"/>
		<path style="clip-path:url(#SVGID_00000097464503632871257830000001230902026395012782_);" d="M417.7,122.5h2.6V122h-2.6v-3.3
			h-0.4c0,1.5-0.6,3.4-2.3,3.5v0.4h1.5v4.9c0,2.2,1.7,2.4,2.3,2.4c1.3,0,1.8-1.3,1.8-2.4v-1h-0.4v1c0,1.3-0.5,2-1.2,2
			c-1.2,0-1.2-1.6-1.2-1.9V122.5"/>
	</g>
</g>
<g>
	<g>
		<line class="st27" x1="11.7" y1="122.9" x2="54.7" y2="122.9"/>
		<g>
			<polygon points="53.2,125 61.4,122.9 53.2,120.7 			"/>
		</g>
	</g>
</g>
<g>
	<g>
		<line class="st27" x1="102.6" y1="122.9" x2="145.6" y2="122.9"/>
		<g>
			<polygon points="144.2,125 152.3,122.9 144.2,120.7 			"/>
		</g>
	</g>
</g>
<g>
	<g>
		<line class="st27" x1="246.2" y1="122.9" x2="274.6" y2="122.9"/>
		<g>
			<polygon points="273.2,125 281.3,122.9 273.2,120.7 			"/>
		</g>
	</g>
</g>
<g>
	<g>
		<line class="st27" x1="322.5" y1="122.9" x2="336.9" y2="122.9"/>
		<g>
			<polygon points="335.4,125 343.5,122.9 335.4,120.7 			"/>
		</g>
	</g>
</g>
<line class="st27" x1="134.8" y1="70.3" x2="134.8" y2="175"/>
<g>
	<g>
		<line class="st27" x1="134.8" y1="70.7" x2="146" y2="70.7"/>
		<g>
			<polygon points="144.5,72.9 152.7,70.7 144.5,68.5 			"/>
		</g>
	</g>
</g>
<g>
	<g>
		<line class="st27" x1="134.4" y1="175" x2="145.5" y2="175"/>
		<g>
			<polygon points="144,177.2 152.1,175 144,172.8 			"/>
		</g>
	</g>
</g>
<g>
	<g>
		<line class="st27" x1="302.1" y1="95.5" x2="302.1" y2="70.4"/>
		<g>
			<polygon points="304.2,94 302.1,102.1 299.9,94 			"/>
		</g>
	</g>
</g>
<line class="st27" x1="246.9" y1="70.7" x2="302.4" y2="70.7"/>
<g>
	<g>
		<line class="st27" x1="302.1" y1="150.3" x2="302.1" y2="175.3"/>
		<g>
			<polygon points="299.9,151.8 302,143.6 304.2,151.8 			"/>
		</g>
	</g>
</g>
<line class="st27" x1="246.8" y1="175" x2="302.4" y2="175"/>
<g>
	<g>
		<line class="st27" x1="438" y1="122.9" x2="476.2" y2="122.9"/>
		<g>
			<polygon points="474.7,125 482.8,122.9 474.7,120.7 			"/>
		</g>
	</g>
</g>
<g>
	<g>
		<line class="st27" x1="81.9" y1="150.1" x2="81.9" y2="202.1"/>
		<g>
			<polygon points="79.7,151.5 81.9,143.4 84.1,151.5 			"/>
		</g>
	</g>
</g>
<line class="st27" x1="81.9" y1="202.1" x2="451.7" y2="202.1"/>
<line class="st27" x1="451.7" y1="202.5" x2="451.7" y2="123.2"/>
<polygon class="st1" points="31.6,111.6 31.6,111.6 31.6,111.6 31.6,111.6 31.6,111.6 31.6,111.6 31.6,111.6 31.6,111.6 31.6,111.6 
	31.6,111.6 31.6,111.6 31.6,111.6 31.6,111.6 31.6,111.6 31.6,111.6 31.6,111.6 31.6,111.6 31.6,111.6 31.6,111.6 31.6,111.6 
	31.6,111.6 31.6,111.6 31.6,111.6 31.6,111.6 31.6,111.6 31.6,111.6 31.6,111.6 31.6,111.6 31.6,111.6 31.6,111.6 31.6,111.6 
	31.6,111.6 31.6,111.6 31.6,111.6 31.6,111.6 31.6,111.6 31.6,111.6 31.6,111.6 31.6,111.6 31.6,111.6 31.6,111.6 31.6,111.6 
	31.6,111.6 31.6,111.6 31.6,111.6 31.6,111.6 31.6,111.6 31.6,111.6 31.6,111.6 31.6,111.6 31.6,111.6 31.6,111.6 31.6,111.6 
	31.6,111.6 31.6,111.6 31.6,111.6 31.6,111.6 31.6,111.6 31.6,111.6 31.6,111.6 31.6,111.6 31.6,111.6 31.6,111.6 31.6,111.6 
	31.6,111.6 31.6,111.6 31.6,111.6 31.6,111.6 31.6,111.6 31.6,111.6 31.6,111.6 31.6,111.6 31.6,111.6 31.6,111.6 31.6,111.6 
	31.6,111.6 31.6,111.6 31.6,111.6 31.6,111.6 31.6,111.6 31.6,111.6 31.6,111.6 31.6,111.6 31.6,111.6 31.6,111.6 "/>
<polygon class="st1" points="32.3,111.9 32.3,111.9 32.3,111.9 32.3,111.9 32.3,111.9 32.3,111.9 32.3,111.9 32.3,111.9 32.3,111.9 
	32.3,111.9 32.3,111.9 32.3,111.9 32.3,111.9 32.3,111.9 32.3,111.9 32.3,111.9 32.3,111.9 32.3,111.9 32.3,111.9 32.3,111.9 
	32.3,111.9 32.3,111.9 32.3,111.9 32.3,111.9 32.3,111.9 32.3,111.9 32.3,111.9 32.3,111.9 32.3,111.9 32.3,111.9 32.3,111.9 
	32.3,111.9 32.3,111.9 32.3,111.9 32.3,111.9 32.3,111.9 32.3,111.9 32.3,111.9 32.3,111.9 32.3,111.9 32.3,111.9 32.3,111.9 
	32.3,111.9 32.3,111.9 32.3,111.9 32.3,111.9 32.3,111.9 32.3,111.9 32.3,111.9 32.3,111.9 32.3,111.9 32.3,111.9 32.3,111.9 
	32.3,111.9 32.3,111.9 32.3,111.9 32.3,111.9 32.3,111.9 32.3,111.9 32.3,111.9 32.3,111.9 32.3,111.9 32.3,111.9 32.3,111.9 
	32.3,111.9 32.3,111.9 32.3,111.9 32.3,111.9 32.3,111.9 32.3,111.9 32.3,111.9 32.3,111.9 32.3,111.9 32.3,111.9 32.3,111.9 
	32.3,111.9 32.3,111.9 32.3,111.9 32.3,111.9 32.3,111.9 32.3,111.9 32.3,111.9 32.3,111.9 32.3,111.9 32.3,111.9 "/>
<g>
	<defs>
		<rect id="SVGID_00000141446610579214301530000003635232513324525462_" x="18.8" y="101.7" width="27.7" height="19"/>
	</defs>
	<clipPath id="SVGID_00000130609261046256844130000014424242326838963606_">
		<use xlink:href="#SVGID_00000141446610579214301530000003635232513324525462_"  style="overflow:visible;"/>
	</clipPath>
	<path style="clip-path:url(#SVGID_00000130609261046256844130000014424242326838963606_);" d="M20.3,114.4
		c-0.1,0.3-0.2,0.7-0.2,0.8c0,0.3,0.2,0.5,0.5,0.5c0.2,0,0.5-0.1,0.7-0.5c0-0.1,0.6-2.5,0.7-2.8c0.1-0.6,0.5-1.8,0.6-2.3
		c0.1-0.2,0.6-1.1,1-1.5c0.1-0.1,0.7-0.6,1.4-0.6c0.5,0,0.7,0.2,0.8,0.2c-0.5,0.1-0.9,0.5-0.9,1c0,0.3,0.2,0.6,0.7,0.6
		c0.5,0,1-0.4,1-1.1c0-0.6-0.6-1.2-1.5-1.2c-1.2,0-2,0.9-2.3,1.4c-0.1-0.8-0.8-1.4-1.6-1.4c-0.8,0-1.2,0.7-1.3,1
		c-0.3,0.6-0.6,1.7-0.6,1.7c0,0.2,0.2,0.2,0.2,0.2c0.2,0,0.2,0,0.3-0.4c0.3-1.3,0.7-2.1,1.3-2.1c0.3,0,0.6,0.1,0.6,0.8
		c0,0.4-0.1,0.6-0.3,1.5L20.3,114.4"/>
	<path style="clip-path:url(#SVGID_00000130609261046256844130000014424242326838963606_);" d="M33.3,119.7c0-0.1,0-0.1-0.3-0.4
		c-2.2-2.3-2.8-5.6-2.8-8.4c0-3.1,0.7-6.2,2.9-8.5c0.2-0.2,0.2-0.2,0.2-0.3c0-0.1-0.1-0.2-0.2-0.2c-0.2,0-1.8,1.2-2.8,3.5
		c-0.9,2-1.1,4-1.1,5.5c0,1.4,0.2,3.6,1.2,5.6c1.1,2.2,2.6,3.4,2.8,3.4C33.2,119.9,33.3,119.9,33.3,119.7"/>
	<path style="clip-path:url(#SVGID_00000130609261046256844130000014424242326838963606_);" d="M37.9,108.3h1.7c0.4,0,0.5,0,0.5-0.4
		c0-0.2-0.2-0.2-0.5-0.2h-1.6c0.6-2.5,0.7-2.9,0.7-3c0-0.3-0.2-0.5-0.5-0.5c-0.1,0-0.6,0-0.7,0.6l-0.7,2.8h-1.7
		c-0.4,0-0.5,0-0.5,0.3c0,0.2,0.1,0.2,0.5,0.2h1.6c-1.3,5.1-1.4,5.4-1.4,5.7c0,1,0.7,1.6,1.6,1.6c1.8,0,2.8-2.6,2.8-2.8
		c0-0.2-0.1-0.2-0.2-0.2c-0.2,0-0.2,0.1-0.3,0.2c-0.8,1.9-1.7,2.3-2.3,2.3c-0.4,0-0.6-0.2-0.6-0.8c0-0.4,0-0.6,0.1-0.9L37.9,108.3"
		/>
	<path style="clip-path:url(#SVGID_00000130609261046256844130000014424242326838963606_);" d="M45.9,111c0-1.4-0.2-3.6-1.2-5.6
		c-1.1-2.2-2.6-3.4-2.8-3.4c-0.1,0-0.2,0.1-0.2,0.2c0,0.1,0,0.1,0.3,0.4c1.8,1.8,2.8,4.6,2.8,8.3c0,3.1-0.7,6.2-2.9,8.5
		c-0.2,0.2-0.2,0.2-0.2,0.3c0,0.1,0.1,0.2,0.2,0.2c0.2,0,1.8-1.2,2.8-3.5C45.7,114.5,45.9,112.5,45.9,111"/>
</g>
<polygon class="st1" points="85,56.2 85,56.2 85,56.2 85,56.2 85,56.2 85,56.2 85,56.2 85,56.2 85,56.2 85,56.2 85,56.2 85,56.2 
	85,56.2 85,56.2 85,56.2 85,56.2 85,56.2 85,56.2 85,56.2 85,56.2 85,56.2 85,56.2 85,56.2 85,56.2 85,56.2 85,56.2 85,56.2 
	85,56.2 85,56.2 85,56.2 85,56.2 85,56.2 85,56.2 85,56.2 85,56.2 85,56.2 85,56.2 85,56.2 85,56.2 85,56.2 85,56.2 85,56.2 
	85,56.2 85,56.2 85,56.2 85,56.2 85,56.2 85,56.2 85,56.2 85,56.2 85,56.2 85,56.2 85,56.2 85,56.2 85,56.2 85,56.2 85,56.2 
	85,56.2 85,56.2 85,56.2 85,56.2 85,56.2 85,56.2 85,56.2 85,56.2 85,56.2 85,56.2 85,56.2 85,56.2 85,56.2 85,56.2 85,56.2 
	85,56.2 85,56.2 85,56.2 85,56.2 85,56.2 85,56.2 85,56.2 85,56.2 85,56.2 85,56.2 85,56.2 85,56.2 85,56.2 "/>
<g>
	<defs>
		<rect id="SVGID_00000047754055185298123230000008702637489469303707_" x="105.9" y="102.2" width="27" height="19"/>
	</defs>
	<clipPath id="SVGID_00000031901903143688986050000009073854722366071951_">
		<use xlink:href="#SVGID_00000047754055185298123230000008702637489469303707_"  style="overflow:visible;"/>
	</clipPath>
	
		<path style="opacity:0;clip-path:url(#SVGID_00000031901903143688986050000009073854722366071951_);fill:none;stroke:#000000;stroke-width:1.000000e-06;stroke-miterlimit:10;" d="
		M119.4,111.7L119.4,111.7z"/>
	<path style="clip-path:url(#SVGID_00000031901903143688986050000009073854722366071951_);" d="M107.7,111.5c0.7-2.7,2.5-3,3-3
		c0.8,0,1.3,0.5,1.3,1.1c0,1.9-2.9,1.9-3.6,1.9H107.7 M108.5,111.9c0.5,0,1.8,0,2.7-0.4c1.3-0.5,1.3-1.6,1.3-1.8
		c0-0.8-0.7-1.5-1.9-1.5c-2,0-4.7,1.7-4.7,4.9c0,1.8,1.1,3.2,2.8,3.2c2.6,0,4.1-1.9,4.1-2.1c0-0.1-0.1-0.2-0.2-0.2
		c-0.1,0-0.1,0-0.2,0.2c-1.4,1.8-3.4,1.8-3.6,1.8c-1.4,0-1.6-1.5-1.6-2.1c0-0.2,0-0.8,0.3-1.9H108.5z"/>
	<path style="clip-path:url(#SVGID_00000031901903143688986050000009073854722366071951_);" d="M119.4,120.3c0-0.1,0-0.1-0.3-0.4
		c-2.2-2.3-2.8-5.6-2.8-8.4c0-3.1,0.7-6.2,2.9-8.5c0.2-0.2,0.2-0.2,0.2-0.3c0-0.1-0.1-0.2-0.2-0.2c-0.2,0-1.8,1.2-2.8,3.5
		c-0.9,2-1.1,4-1.1,5.5c0,1.4,0.2,3.6,1.2,5.6c1.1,2.2,2.6,3.4,2.8,3.4C119.3,120.5,119.4,120.4,119.4,120.3"/>
	<path style="clip-path:url(#SVGID_00000031901903143688986050000009073854722366071951_);" d="M124.2,108.9h1.7
		c0.4,0,0.5,0,0.5-0.4c0-0.2-0.2-0.2-0.5-0.2h-1.6c0.6-2.5,0.7-2.9,0.7-3c0-0.3-0.2-0.5-0.5-0.5c-0.1,0-0.6,0-0.7,0.6l-0.7,2.8h-1.7
		c-0.4,0-0.5,0-0.5,0.3c0,0.2,0.1,0.2,0.5,0.2h1.6c-1.3,5.1-1.4,5.4-1.4,5.7c0,1,0.7,1.6,1.6,1.6c1.8,0,2.8-2.6,2.8-2.8
		c0-0.2-0.1-0.2-0.2-0.2c-0.2,0-0.2,0.1-0.3,0.2c-0.8,1.9-1.7,2.3-2.3,2.3c-0.4,0-0.6-0.2-0.6-0.8c0-0.4,0-0.6,0.1-0.9L124.2,108.9"
		/>
	<path style="clip-path:url(#SVGID_00000031901903143688986050000009073854722366071951_);" d="M132.2,111.6c0-1.4-0.2-3.6-1.2-5.6
		c-1.1-2.2-2.6-3.4-2.8-3.4c-0.1,0-0.2,0.1-0.2,0.2c0,0.1,0,0.1,0.3,0.4c1.8,1.8,2.8,4.6,2.8,8.3c0,3.1-0.7,6.2-2.9,8.5
		c-0.2,0.2-0.2,0.2-0.2,0.3c0,0.1,0.1,0.2,0.2,0.2c0.2,0,1.8-1.2,2.8-3.5C132,115,132.2,113.1,132.2,111.6"/>
</g>
<polygon class="st1" points="467.4,109.4 467.4,109.4 467.4,109.4 467.4,109.4 467.4,109.4 467.4,109.4 467.4,109.4 467.4,109.4 
	467.4,109.4 467.4,109.4 467.4,109.4 467.4,109.4 467.4,109.4 467.4,109.4 467.4,109.4 467.4,109.4 467.4,109.4 467.4,109.4 
	467.4,109.4 467.4,109.4 467.4,109.4 467.4,109.4 467.4,109.4 467.4,109.4 467.4,109.4 467.4,109.4 467.4,109.4 467.4,109.4 
	467.4,109.4 467.4,109.4 467.4,109.4 467.4,109.4 467.4,109.4 467.4,109.4 467.4,109.4 467.4,109.4 467.4,109.4 467.4,109.4 
	467.4,109.4 467.4,109.4 467.4,109.4 467.4,109.4 467.4,109.4 467.4,109.4 467.4,109.4 467.4,109.4 467.4,109.4 467.4,109.4 
	467.4,109.4 467.4,109.4 467.4,109.4 467.4,109.4 467.4,109.4 467.4,109.4 467.4,109.4 467.4,109.4 467.4,109.4 467.4,109.4 
	467.4,109.4 467.4,109.4 467.4,109.4 467.4,109.4 467.4,109.4 467.4,109.4 467.4,109.4 467.4,109.4 467.4,109.4 467.4,109.4 
	467.4,109.4 467.4,109.4 467.4,109.4 467.4,109.4 467.4,109.4 467.4,109.4 467.4,109.4 467.4,109.4 467.4,109.4 467.4,109.4 
	467.4,109.4 467.4,109.4 467.4,109.4 467.4,109.4 467.4,109.4 467.4,109.4 467.4,109.4 "/>
<g>
	<defs>
		<rect id="SVGID_00000163069865488895827820000012530991690457845400_" x="443.5" y="102.2" width="28" height="19"/>
	</defs>
	<clipPath id="SVGID_00000077309313125541052800000012574203377378436282_">
		<use xlink:href="#SVGID_00000163069865488895827820000012530991690457845400_"  style="overflow:visible;"/>
	</clipPath>
	
		<path style="opacity:0;clip-path:url(#SVGID_00000077309313125541052800000012574203377378436282_);fill:none;stroke:#000000;stroke-width:1.000000e-06;stroke-miterlimit:10;" d="
		M457.5,111.7L457.5,111.7z"/>
	<path style="clip-path:url(#SVGID_00000077309313125541052800000012574203377378436282_);" d="M451.6,109.2
		c0.1-0.2,0.1-0.3,0.1-0.4c0-0.3-0.2-0.5-0.5-0.5c-0.2,0-0.5,0.1-0.6,0.4c0,0.1-0.2,0.6-0.2,1c-0.1,0.5-0.2,0.9-0.4,1.4l-0.8,3.2
		c-0.1,0.3-0.8,1.5-2,1.5c-0.9,0-1.1-0.8-1.1-1.4c0-0.8,0.3-1.9,0.9-3.5c0.3-0.7,0.4-0.9,0.4-1.3c0-0.8-0.6-1.5-1.5-1.5
		c-1.7,0-2.4,2.6-2.4,2.8c0,0.2,0.2,0.2,0.2,0.2c0.2,0,0.2,0,0.3-0.3c0.5-1.7,1.2-2.2,1.8-2.2c0.1,0,0.4,0,0.4,0.6
		c0,0.4-0.2,0.9-0.3,1.3c-0.7,1.9-1,2.9-1,3.8c0,1.6,1.1,2.1,2.2,2.1c0.7,0,1.3-0.3,1.8-0.8c-0.2,0.9-0.4,1.8-1.2,2.8
		c-0.5,0.6-1.1,1.1-2,1.1c-0.2,0-1.1-0.1-1.4-0.8c0.3,0,0.5,0,0.8-0.2c0.2-0.2,0.4-0.4,0.4-0.7c0-0.6-0.5-0.6-0.7-0.6
		c-0.4,0-1,0.3-1,1.2c0,0.9,0.8,1.6,1.9,1.6c1.8,0,3.7-1.6,4.2-3.6L451.6,109.2"/>
	<path style="clip-path:url(#SVGID_00000077309313125541052800000012574203377378436282_);" d="M458.4,120.3c0-0.1,0-0.1-0.3-0.4
		c-2.2-2.3-2.8-5.6-2.8-8.4c0-3.1,0.7-6.2,2.9-8.5c0.2-0.2,0.2-0.2,0.2-0.3c0-0.1-0.1-0.2-0.2-0.2c-0.2,0-1.8,1.2-2.8,3.5
		c-0.9,2-1.1,4-1.1,5.5c0,1.4,0.2,3.6,1.2,5.6c1.1,2.2,2.6,3.4,2.8,3.4C458.3,120.4,458.4,120.4,458.4,120.3"/>
	<path style="clip-path:url(#SVGID_00000077309313125541052800000012574203377378436282_);" d="M463,108.8h1.7c0.4,0,0.5,0,0.5-0.4
		c0-0.2-0.2-0.2-0.5-0.2h-1.6c0.6-2.5,0.7-2.9,0.7-3c0-0.3-0.2-0.5-0.5-0.5c-0.1,0-0.6,0-0.7,0.6l-0.7,2.8h-1.7
		c-0.4,0-0.5,0-0.5,0.3c0,0.2,0.1,0.2,0.5,0.2h1.6c-1.3,5.1-1.4,5.4-1.4,5.7c0,1,0.7,1.6,1.6,1.6c1.8,0,2.8-2.6,2.8-2.8
		c0-0.2-0.1-0.2-0.2-0.2c-0.2,0-0.2,0.1-0.3,0.2c-0.8,1.9-1.7,2.3-2.3,2.3c-0.4,0-0.6-0.2-0.6-0.8c0-0.4,0-0.6,0.1-0.9L463,108.8"/>
	<path style="clip-path:url(#SVGID_00000077309313125541052800000012574203377378436282_);" d="M471,111.5c0-1.4-0.2-3.6-1.2-5.6
		c-1.1-2.2-2.6-3.4-2.8-3.4c-0.1,0-0.2,0.1-0.2,0.2c0,0.1,0,0.1,0.3,0.4c1.8,1.8,2.8,4.6,2.8,8.3c0,3.1-0.7,6.2-2.9,8.5
		c-0.2,0.2-0.2,0.2-0.2,0.3c0,0.1,0.1,0.2,0.2,0.2c0.2,0,1.8-1.2,2.8-3.5C470.8,115,471,113,471,111.5"/>
</g>
</svg>
